<svg width="16" height="20" viewBox="0 0 16 20" fill="none" xmlns="http://www.w3.org/2000/svg">
<path opacity="0.4" d="M14 0.666626H10.6667C11.3739 0.666626 12.0522 0.947577 12.5523 1.44767C13.0524 1.94777 13.3333 2.62605 13.3333 3.33329H2.66667C2.66667 2.62605 2.94762 1.94777 3.44772 1.44767C3.94781 0.947577 4.62609 0.666626 5.33333 0.666626H2C1.46957 0.666626 0.960859 0.87734 0.585786 1.25241C0.210714 1.62749 0 2.13619 0 2.66663L0 17.3333C0 17.8637 0.210714 18.3724 0.585786 18.7475C0.960859 19.1226 1.46957 19.3333 2 19.3333H14C14.5304 19.3333 15.0391 19.1226 15.4142 18.7475C15.7893 18.3724 16 17.8637 16 17.3333V2.66663C16 2.13619 15.7893 1.62749 15.4142 1.25241C15.0391 0.87734 14.5304 0.666626 14 0.666626ZM4 15.6666C3.80222 15.6666 3.60888 15.608 3.44443 15.4981C3.27998 15.3882 3.15181 15.232 3.07612 15.0493C3.00043 14.8666 2.98063 14.6655 3.01921 14.4715C3.0578 14.2776 3.15304 14.0994 3.29289 13.9595C3.43275 13.8197 3.61093 13.7244 3.80491 13.6858C3.99889 13.6473 4.19996 13.6671 4.38268 13.7427C4.56541 13.8184 4.72159 13.9466 4.83147 14.1111C4.94135 14.2755 5 14.4688 5 14.6666C5.00033 14.798 4.97469 14.9282 4.92455 15.0497C4.87441 15.1712 4.80077 15.2815 4.70784 15.3745C4.61492 15.4674 4.50455 15.541 4.38307 15.5912C4.2616 15.6413 4.13141 15.667 4 15.6666ZM4 11.6666C3.80222 11.6666 3.60888 11.608 3.44443 11.4981C3.27998 11.3882 3.15181 11.232 3.07612 11.0493C3.00043 10.8666 2.98063 10.6655 3.01921 10.4715C3.0578 10.2776 3.15304 10.0994 3.29289 9.95952C3.43275 9.81967 3.61093 9.72443 3.80491 9.68584C3.99889 9.64726 4.19996 9.66706 4.38268 9.74275C4.56541 9.81843 4.72159 9.94661 4.83147 10.1111C4.94135 10.2755 5 10.4688 5 10.6666C5.00033 10.798 4.97469 10.9282 4.92455 11.0497C4.87441 11.1712 4.80077 11.2815 4.70784 11.3745C4.61492 11.4674 4.50455 11.541 4.38307 11.5912C4.2616 11.6413 4.13141 11.667 4 11.6666ZM4 7.66663C3.80222 7.66663 3.60888 7.60798 3.44443 7.4981C3.27998 7.38821 3.15181 7.23204 3.07612 7.04931C3.00043 6.86658 2.98063 6.66552 3.01921 6.47154C3.0578 6.27755 3.15304 6.09937 3.29289 5.95952C3.43275 5.81967 3.61093 5.72443 3.80491 5.68584C3.99889 5.64726 4.19996 5.66706 4.38268 5.74275C4.56541 5.81843 4.72159 5.94661 4.83147 6.11106C4.94135 6.27551 5 6.46884 5 6.66663C5.00033 6.79804 4.97469 6.92823 4.92455 7.0497C4.87441 7.17117 4.80077 7.28154 4.70784 7.37447C4.61492 7.46739 4.50455 7.54104 4.38307 7.59118C4.2616 7.64131 4.13141 7.66696 4 7.66663ZM13.3333 15C13.3333 15.0884 13.2982 15.1732 13.2357 15.2357C13.1732 15.2982 13.0884 15.3333 13 15.3333H7C6.91159 15.3333 6.82681 15.2982 6.7643 15.2357C6.70179 15.1732 6.66667 15.0884 6.66667 15V14.3333C6.66667 14.2449 6.70179 14.1601 6.7643 14.0976C6.82681 14.0351 6.91159 14 7 14H13C13.0884 14 13.1732 14.0351 13.2357 14.0976C13.2982 14.1601 13.3333 14.2449 13.3333 14.3333V15ZM13.3333 11C13.3333 11.0884 13.2982 11.1732 13.2357 11.2357C13.1732 11.2982 13.0884 11.3333 13 11.3333H7C6.91159 11.3333 6.82681 11.2982 6.7643 11.2357C6.70179 11.1732 6.66667 11.0884 6.66667 11V10.3333C6.66667 10.2449 6.70179 10.1601 6.7643 10.0976C6.82681 10.0351 6.91159 9.99996 7 9.99996H13C13.0884 9.99996 13.1732 10.0351 13.2357 10.0976C13.2982 10.1601 13.3333 10.2449 13.3333 10.3333V11ZM13.3333 6.99996C13.3333 7.08837 13.2982 7.17315 13.2357 7.23566C13.1732 7.29817 13.0884 7.33329 13 7.33329H7C6.91159 7.33329 6.82681 7.29817 6.7643 7.23566C6.70179 7.17315 6.66667 7.08837 6.66667 6.99996V6.33329C6.66667 6.24489 6.70179 6.1601 6.7643 6.09759C6.82681 6.03508 6.91159 5.99996 7 5.99996H13C13.0884 5.99996 13.1732 6.03508 13.2357 6.09759C13.2982 6.1601 13.3333 6.24489 13.3333 6.33329V6.99996Z" fill="#213F7D"/>
</svg>
