<svg width="14" height="12" viewBox="0 0 14 12" fill="none" xmlns="http://www.w3.org/2000/svg">
<path d="M5.85865 0.624824L0.163095 10.2128C-0.314368 11.0165 0.313693 12 1.30445 12H12.6956C13.6863 12 14.3144 11.0165 13.8369 10.2128L8.14135 0.624823C7.64646 -0.208276 6.35354 -0.208273 5.85865 0.624824ZM6.99999 3.75878C7.35969 3.75878 7.65128 4.02875 7.65128 4.36179V7.57788C7.65128 7.91092 7.35969 8.1809 6.99999 8.1809C6.64029 8.1809 6.34869 7.91092 6.34869 7.57788V4.36179C6.34869 4.02875 6.64029 3.75878 6.99999 3.75878ZM7.65128 9.38693C7.65128 9.71997 7.35969 9.98995 6.99999 9.98995C6.64029 9.98995 6.34869 9.71997 6.34869 9.38693C6.34869 9.05389 6.64029 8.78391 6.99999 8.78391C7.35969 8.78391 7.65128 9.05389 7.65128 9.38693Z" fill="#F51616"/>
</svg>
